<?xml version="1.0" encoding="utf-8"?>
<!-- Generator: Adobe Illustrator 24.0.2, SVG Export Plug-In . SVG Version: 6.00 Build 0)  -->
<svg version="1.1" id="Layer_1" xmlns="http://www.w3.org/2000/svg" xmlns:xlink="http://www.w3.org/1999/xlink" x="0px" y="0px"
	 viewBox="0 0 300 87" style="enable-background:new 0 0 300 87;" xml:space="preserve">
<style type="text/css">
	.st0{filter:url(#Adobe_OpacityMaskFilter);}
	.st1{fill-rule:evenodd;clip-rule:evenodd;fill:#FFFFFF;}
	.st2{mask:url(#mask-2_1_);fill-rule:evenodd;clip-rule:evenodd;fill:#0077C0;}
	.st3{filter:url(#Adobe_OpacityMaskFilter_1_);}
	.st4{mask:url(#mask-4_1_);fill-rule:evenodd;clip-rule:evenodd;fill:#0077C0;}
	.st5{filter:url(#Adobe_OpacityMaskFilter_2_);}
	.st6{mask:url(#mask-4_2_);fill-rule:evenodd;clip-rule:evenodd;fill:#0077C0;}
	.st7{filter:url(#Adobe_OpacityMaskFilter_3_);}
	.st8{mask:url(#mask-4_3_);fill-rule:evenodd;clip-rule:evenodd;fill:#0077C0;}
	.st9{filter:url(#Adobe_OpacityMaskFilter_4_);}
	.st10{mask:url(#mask-4_4_);fill-rule:evenodd;clip-rule:evenodd;fill:#0077C0;}
	.st11{filter:url(#Adobe_OpacityMaskFilter_5_);}
	.st12{mask:url(#mask-4_5_);fill-rule:evenodd;clip-rule:evenodd;fill:#231F20;}
	.st13{filter:url(#Adobe_OpacityMaskFilter_6_);}
	.st14{mask:url(#mask-4_6_);fill-rule:evenodd;clip-rule:evenodd;fill:#231F20;}
	.st15{filter:url(#Adobe_OpacityMaskFilter_7_);}
	.st16{mask:url(#mask-4_7_);fill-rule:evenodd;clip-rule:evenodd;fill:#231F20;}
	.st17{filter:url(#Adobe_OpacityMaskFilter_8_);}
	.st18{mask:url(#mask-4_8_);fill-rule:evenodd;clip-rule:evenodd;fill:#231F20;}
	.st19{filter:url(#Adobe_OpacityMaskFilter_9_);}
	.st20{mask:url(#mask-4_9_);fill-rule:evenodd;clip-rule:evenodd;fill:#231F20;}
	.st21{filter:url(#Adobe_OpacityMaskFilter_10_);}
	.st22{mask:url(#mask-4_10_);fill-rule:evenodd;clip-rule:evenodd;fill:#231F20;}
	.st23{filter:url(#Adobe_OpacityMaskFilter_11_);}
	.st24{mask:url(#mask-4_11_);fill-rule:evenodd;clip-rule:evenodd;fill:#231F20;}
	.st25{filter:url(#Adobe_OpacityMaskFilter_12_);}
	.st26{mask:url(#mask-4_12_);fill-rule:evenodd;clip-rule:evenodd;fill:#231F20;}
	.st27{filter:url(#Adobe_OpacityMaskFilter_13_);}
	.st28{mask:url(#mask-4_13_);fill-rule:evenodd;clip-rule:evenodd;fill:#231F20;}
</style>
<title>Group 58</title>
<desc>Created with Sketch.</desc>
<g id="Page-1">
	<g id="Group-58" transform="translate(0.000000, -2.000000)">
		<g id="Group-43" transform="translate(0.000000, 0.340465)">
			<g id="Clip-42">
			</g>
			<defs>
				<filter id="Adobe_OpacityMaskFilter" filterUnits="userSpaceOnUse" x="0" y="2" width="72" height="82.9">
					<feColorMatrix  type="matrix" values="1 0 0 0 0  0 1 0 0 0  0 0 1 0 0  0 0 0 1 0"/>
				</filter>
			</defs>
			<mask maskUnits="userSpaceOnUse" x="0" y="2" width="72" height="82.9" id="mask-2_1_">
				<g class="st0">
					<polygon id="path-1_1_" class="st1" points="0,2 72,2 72,84.9 0,84.9 					"/>
				</g>
			</mask>
			<path id="Fill-41" class="st2" d="M58.7,62.8v-9.3c0-1.1-0.6-2.1-1.5-2.6l-8.9-5.2c0.9-2.4,0.8-4.8,0.8-7.8v-5.5l12.3-8.7
				c0.8-0.6,1.3-1.5,1.3-2.5v-6.1c1.5,1,2.6,1.8,3.3,2.4l0,19.6C66,47.4,66,54.8,58.7,62.8L58.7,62.8z M36,78.5
				c-7.1-3.7-12.5-7.1-16.6-10.3v-13l8-4.6c1.9,1.7,4.7,3.6,8.7,5.6c4-2.1,6.7-3.9,8.6-5.6l7.9,4.6v13C48.5,71.4,43.1,74.7,36,78.5
				L36,78.5z M6.1,37.1l0-19.6c0.7-0.6,1.8-1.4,3.3-2.4v6.1c0,1,0.5,1.9,1.3,2.5L23,32.3v5.5c0,2.9-0.1,5.4,0.8,7.8l-9,5.2
				c-0.9,0.5-1.5,1.5-1.5,2.6v9.3C6.1,54.8,6.1,47.3,6.1,37.1L6.1,37.1z M56.5,12v7.6l-11.6,8.2c-2.1-0.9-5-1.8-8.9-1.8
				s-6.8,0.8-8.9,1.8l-11.6-8.2V12c5-2.1,11.8-3.9,20.5-3.9S51.6,9.9,56.5,12L56.5,12z M72,16.2c0-0.8-0.3-1.5-0.8-2.1
				C70.7,13.6,59.6,2,36,2C12.5,2,1.3,13.6,0.8,14.1C0.3,14.6,0,15.4,0,16.2l0,20.9c0,17.2-0.1,29.6,34.6,47.5
				c0.4,0.2,0.9,0.3,1.4,0.3s1-0.1,1.4-0.3C72.1,66.7,72.1,54.3,72,37.1L72,16.2z"/>
		</g>
		<g id="Clip-45">
		</g>
		<defs>
			<filter id="Adobe_OpacityMaskFilter_1_" filterUnits="userSpaceOnUse" x="33" y="59" width="6.1" height="11.5">
				<feColorMatrix  type="matrix" values="1 0 0 0 0  0 1 0 0 0  0 0 1 0 0  0 0 0 1 0"/>
			</filter>
		</defs>
		<mask maskUnits="userSpaceOnUse" x="33" y="59" width="6.1" height="11.5" id="mask-4_1_">
			<g class="st3">
				<polygon id="path-3_1_" class="st1" points="0,88.7 299.3,88.7 299.3,2.3 0,2.3 				"/>
			</g>
		</mask>
		<polygon id="Fill-44" class="st4" points="33,70.5 39.1,70.5 39.1,59 33,59 		"/>
		<defs>
			<filter id="Adobe_OpacityMaskFilter_2_" filterUnits="userSpaceOnUse" x="33" y="12.5" width="6.1" height="11.5">
				<feColorMatrix  type="matrix" values="1 0 0 0 0  0 1 0 0 0  0 0 1 0 0  0 0 0 1 0"/>
			</filter>
		</defs>
		<mask maskUnits="userSpaceOnUse" x="33" y="12.5" width="6.1" height="11.5" id="mask-4_2_">
			<g class="st5">
				<polygon id="path-3_2_" class="st1" points="0,88.7 299.3,88.7 299.3,2.3 0,2.3 				"/>
			</g>
		</mask>
		<polygon id="Fill-46" class="st6" points="33,23.9 39.1,23.9 39.1,12.5 33,12.5 		"/>
		<defs>
			<filter id="Adobe_OpacityMaskFilter_3_" filterUnits="userSpaceOnUse" x="8.8" y="37.2" width="11.5" height="6.1">
				<feColorMatrix  type="matrix" values="1 0 0 0 0  0 1 0 0 0  0 0 1 0 0  0 0 0 1 0"/>
			</filter>
		</defs>
		<mask maskUnits="userSpaceOnUse" x="8.8" y="37.2" width="11.5" height="6.1" id="mask-4_3_">
			<g class="st7">
				<polygon id="path-3_3_" class="st1" points="0,88.7 299.3,88.7 299.3,2.3 0,2.3 				"/>
			</g>
		</mask>
		<polygon id="Fill-47" class="st8" points="8.8,43.3 20.3,43.3 20.3,37.2 8.8,37.2 		"/>
		<defs>
			<filter id="Adobe_OpacityMaskFilter_4_" filterUnits="userSpaceOnUse" x="51.7" y="37.2" width="11.5" height="6.1">
				<feColorMatrix  type="matrix" values="1 0 0 0 0  0 1 0 0 0  0 0 1 0 0  0 0 0 1 0"/>
			</filter>
		</defs>
		<mask maskUnits="userSpaceOnUse" x="51.7" y="37.2" width="11.5" height="6.1" id="mask-4_4_">
			<g class="st9">
				<polygon id="path-3_4_" class="st1" points="0,88.7 299.3,88.7 299.3,2.3 0,2.3 				"/>
			</g>
		</mask>
		<polygon id="Fill-48" class="st10" points="51.7,43.3 63.2,43.3 63.2,37.2 51.7,37.2 		"/>
		<defs>
			<filter id="Adobe_OpacityMaskFilter_5_" filterUnits="userSpaceOnUse" x="89.5" y="19" width="29.3" height="39.8">
				<feColorMatrix  type="matrix" values="1 0 0 0 0  0 1 0 0 0  0 0 1 0 0  0 0 0 1 0"/>
			</filter>
		</defs>
		<mask maskUnits="userSpaceOnUse" x="89.5" y="19" width="29.3" height="39.8" id="mask-4_5_">
			<g class="st11">
				<polygon id="path-3_5_" class="st1" points="0,88.7 299.3,88.7 299.3,2.3 0,2.3 				"/>
			</g>
		</mask>
		<path id="Fill-49" class="st12" d="M96.1,41.4v11.7h9.1c5,0,6.9-1.2,6.9-5.5c0-4.7-2.2-6.1-6.8-6.1H96.1z M96.1,24.8v11.7h5.8
			c3.6,0,6.1-0.3,7.3-1c1.3-0.7,1.9-2.2,1.9-4.7c0-4.7-2.2-6-7.8-6H96.1z M114.5,21.4c2.2,1.6,3.3,4.4,3.3,8.5
			c0,5.3-1.4,8.1-5.1,8.8v0.2c4.5,0.6,6.1,3.9,6.1,9.2c0,4.1-1.1,6.9-3.2,8.4c-2.1,1.5-5.5,2.3-10.2,2.3c-6,0-11-0.2-15.2-0.5
			c-0.6-0.1-0.8-0.2-0.8-0.7V20.1c0-0.6,0.2-0.7,0.8-0.7c3.6-0.3,8.3-0.4,13.8-0.4C108.8,19,112.3,19.8,114.5,21.4L114.5,21.4z"/>
		<defs>
			<filter id="Adobe_OpacityMaskFilter_6_" filterUnits="userSpaceOnUse" x="121.7" y="30.2" width="24.4" height="28.7">
				<feColorMatrix  type="matrix" values="1 0 0 0 0  0 1 0 0 0  0 0 1 0 0  0 0 0 1 0"/>
			</filter>
		</defs>
		<mask maskUnits="userSpaceOnUse" x="121.7" y="30.2" width="24.4" height="28.7" id="mask-4_6_">
			<g class="st13">
				<polygon id="path-3_6_" class="st1" points="0,88.7 299.3,88.7 299.3,2.3 0,2.3 				"/>
			</g>
		</mask>
		<path id="Fill-50" class="st14" d="M145.3,30.2c0.5,0,0.8,0.3,0.8,0.8v26.2c0,0.7-0.3,0.7-0.8,0.8c-2.9,0.6-6.7,0.9-11.5,0.9
			c-5.1,0-7.6-0.3-9.6-2.1c-2.1-1.8-2.6-4.6-2.6-10.1V30.9c0-0.5,0.3-0.8,0.9-0.8h4.6c0.5,0,0.7,0.3,0.7,0.8v14.5
			c0,3.9,0.2,5.8,1.2,6.8c1.1,1.1,2.1,1.1,4.8,1.1h5.9V30.9c0-0.5,0.3-0.8,0.8-0.8H145.3z"/>
		<defs>
			<filter id="Adobe_OpacityMaskFilter_7_" filterUnits="userSpaceOnUse" x="149.2" y="29.9" width="24.6" height="39.2">
				<feColorMatrix  type="matrix" values="1 0 0 0 0  0 1 0 0 0  0 0 1 0 0  0 0 0 1 0"/>
			</filter>
		</defs>
		<mask maskUnits="userSpaceOnUse" x="149.2" y="29.9" width="24.6" height="39.2" id="mask-4_7_">
			<g class="st15">
				<polygon id="path-3_7_" class="st1" points="0,88.7 299.3,88.7 299.3,2.3 0,2.3 				"/>
			</g>
		</mask>
		<path id="Fill-51" class="st16" d="M167.6,35.3h-5.9c-2.7,0-4.4,0.6-5.1,1.7c-0.7,1.2-1.1,3.6-1.1,7.3c0,3.7,0.4,6.2,1.1,7.3
			c0.8,1.1,2.6,1.7,5.4,1.7c2.3,0,4.2-0.1,5.6-0.3V35.3z M172.8,30.8c0.7,0.1,1,0.4,1,1v25.1c0,3.9-0.3,6.1-1.3,8.1
			c-1.4,2.9-4.8,4.1-10.9,4.1c-3.1,0-5.9-0.2-8.4-0.6c-0.5-0.1-0.7-0.4-0.7-0.8v-3c0-0.5,0.3-0.8,0.8-0.8h8c2.5,0,4.2-0.4,5.1-1.1
			c0.9-0.7,1.3-2.1,1.3-4.2v-0.3c-1.9,0.3-4.1,0.5-6.6,0.5c-4.7,0-7.9-1-9.5-3c-1.6-2-2.4-5.9-2.4-11.7c0-5.7,0.8-9.5,2.5-11.4
			c1.7-1.9,5.1-2.9,10.2-2.9C166.1,29.9,169.7,30.2,172.8,30.8L172.8,30.8z"/>
		<defs>
			<filter id="Adobe_OpacityMaskFilter_8_" filterUnits="userSpaceOnUse" x="176.6" y="29.9" width="21.4" height="28.9">
				<feColorMatrix  type="matrix" values="1 0 0 0 0  0 1 0 0 0  0 0 1 0 0  0 0 0 1 0"/>
			</filter>
		</defs>
		<mask maskUnits="userSpaceOnUse" x="176.6" y="29.9" width="21.4" height="28.9" id="mask-4_8_">
			<g class="st17">
				<polygon id="path-3_8_" class="st1" points="0,88.7 299.3,88.7 299.3,2.3 0,2.3 				"/>
			</g>
		</mask>
		<path id="Fill-52" class="st18" d="M196.1,30.5c0.5,0.1,0.8,0.4,0.8,0.8v3c0,0.5-0.3,0.8-0.8,0.8h-9.5c-2.3,0-3.4,0.8-3.4,2.3V38
			c0,1.3,0.9,2.3,2.8,3l6.7,2.5c4.2,1.6,5.2,3.9,5.2,7.5v0.7c0,5.5-3.4,7.2-10.6,7.2c-3.3,0-6.6-0.2-10-0.5
			c-0.5-0.1-0.8-0.3-0.8-0.8v-3.2c0-0.6,0.3-0.8,0.8-0.8h10c3.5,0,4.5-0.4,4.5-2.2v-0.5c0-1.3-0.7-2.1-2.9-2.9l-6.8-2.6
			c-3.4-1.2-5.1-3.7-5.1-7.6v-1c0-5.2,3.9-6.9,11-6.9C191,29.9,193.7,30.1,196.1,30.5"/>
		<defs>
			<filter id="Adobe_OpacityMaskFilter_9_" filterUnits="userSpaceOnUse" x="200.7" y="19.3" width="24.4" height="39.2">
				<feColorMatrix  type="matrix" values="1 0 0 0 0  0 1 0 0 0  0 0 1 0 0  0 0 0 1 0"/>
			</filter>
		</defs>
		<mask maskUnits="userSpaceOnUse" x="200.7" y="19.3" width="24.4" height="39.2" id="mask-4_9_">
			<g class="st19">
				<polygon id="path-3_9_" class="st1" points="0,88.7 299.3,88.7 299.3,2.3 0,2.3 				"/>
			</g>
		</mask>
		<path id="Fill-53" class="st20" d="M206.1,19.3c0.5,0,0.8,0.3,0.8,0.8v10.1c1.5-0.2,3.5-0.3,6-0.3c5.1,0,7.6,0.3,9.6,2.1
			c2.1,1.7,2.6,4.6,2.6,10.1v15.7c0,0.5-0.3,0.8-0.8,0.8h-4.7c-0.5,0-0.8-0.3-0.8-0.8V43.2c0-3.9-0.2-5.8-1.2-6.8
			c-1.1-1.1-2.1-1.1-4.8-1.1h-5.9v22.6c0,0.5-0.3,0.8-0.8,0.8h-4.7c-0.5,0-0.7-0.3-0.7-0.8V20.1c0-0.5,0.3-0.8,0.8-0.8H206.1z"/>
		<defs>
			<filter id="Adobe_OpacityMaskFilter_10_" filterUnits="userSpaceOnUse" x="228.3" y="18.5" width="7.5" height="40.1">
				<feColorMatrix  type="matrix" values="1 0 0 0 0  0 1 0 0 0  0 0 1 0 0  0 0 0 1 0"/>
			</filter>
		</defs>
		<mask maskUnits="userSpaceOnUse" x="228.3" y="18.5" width="7.5" height="40.1" id="mask-4_10_">
			<g class="st21">
				<polygon id="path-3_10_" class="st1" points="0,88.7 299.3,88.7 299.3,2.3 0,2.3 				"/>
			</g>
		</mask>
		<path id="Fill-54" class="st22" d="M234.4,30.2c0.5,0,0.8,0.3,0.8,0.8v26.9c0,0.5-0.3,0.8-0.8,0.8h-4.7c-0.5,0-0.8-0.3-0.8-0.8
			V30.9c0-0.5,0.3-0.8,0.8-0.8H234.4z M235.8,22c0,2.4-1.2,3.5-3.7,3.5c-2.4,0-3.8-1.3-3.8-3.5c0-2.3,1.3-3.5,3.8-3.5
			C234.5,18.5,235.8,19.7,235.8,22L235.8,22z"/>
		<defs>
			<filter id="Adobe_OpacityMaskFilter_11_" filterUnits="userSpaceOnUse" x="238.3" y="29.9" width="24.3" height="28.9">
				<feColorMatrix  type="matrix" values="1 0 0 0 0  0 1 0 0 0  0 0 1 0 0  0 0 0 1 0"/>
			</filter>
		</defs>
		<mask maskUnits="userSpaceOnUse" x="238.3" y="29.9" width="24.3" height="28.9" id="mask-4_11_">
			<g class="st23">
				<polygon id="path-3_11_" class="st1" points="0,88.7 299.3,88.7 299.3,2.3 0,2.3 				"/>
			</g>
		</mask>
		<path id="Fill-55" class="st24" d="M245.8,36.7c-0.8,0.9-1.2,2.8-1.2,5.5h11.8c-0.1-2.8-0.4-4.6-1.2-5.5c-0.8-1-2.3-1.4-4.6-1.4
			C248.2,35.3,246.6,35.8,245.8,36.7 M260.2,32.7c1.9,2.2,2.4,5.3,2.5,11.1v1.5c0,1-0.4,1.4-1.7,1.4h-16.3c0,2.7,0.5,4.5,1.3,5.4
			c0.9,0.9,2.5,1.3,5,1.3h8.8c0.5,0,0.8,0.3,0.8,0.8v3.2c0,0.5-0.3,0.8-0.7,0.9c-2.5,0.4-5.6,0.6-9.2,0.6c-5,0-8.3-0.9-9.9-2.8
			c-1.6-1.9-2.4-5.8-2.4-11.6c0-5.8,0.8-9.7,2.4-11.6c1.6-1.9,4.9-2.9,9.9-2.9C255.6,29.9,258.3,30.5,260.2,32.7"/>
		<defs>
			<filter id="Adobe_OpacityMaskFilter_12_" filterUnits="userSpaceOnUse" x="265.3" y="19.3" width="6.2" height="39.3">
				<feColorMatrix  type="matrix" values="1 0 0 0 0  0 1 0 0 0  0 0 1 0 0  0 0 0 1 0"/>
			</filter>
		</defs>
		<mask maskUnits="userSpaceOnUse" x="265.3" y="19.3" width="6.2" height="39.3" id="mask-4_12_">
			<g class="st25">
				<polygon id="path-3_12_" class="st1" points="0,88.7 299.3,88.7 299.3,2.3 0,2.3 				"/>
			</g>
		</mask>
		<path id="Fill-56" class="st26" d="M270.8,19.3c0.5,0,0.8,0.3,0.8,0.8v37.8c0,0.5-0.3,0.8-0.8,0.8h-4.7c-0.5,0-0.8-0.3-0.8-0.8V20
			c0-0.5,0.3-0.8,0.8-0.8H270.8z"/>
		<defs>
			<filter id="Adobe_OpacityMaskFilter_13_" filterUnits="userSpaceOnUse" x="274.7" y="19.3" width="24.6" height="39.5">
				<feColorMatrix  type="matrix" values="1 0 0 0 0  0 1 0 0 0  0 0 1 0 0  0 0 0 1 0"/>
			</filter>
		</defs>
		<mask maskUnits="userSpaceOnUse" x="274.7" y="19.3" width="24.6" height="39.5" id="mask-4_13_">
			<g class="st27">
				<polygon id="path-3_13_" class="st1" points="0,88.7 299.3,88.7 299.3,2.3 0,2.3 				"/>
			</g>
		</mask>
		<path id="Fill-57" class="st28" d="M293.1,35.3h-5.6c-2.8,0-4.6,0.6-5.4,1.7c-0.8,1.1-1.1,3.6-1.1,7.4c0,3.7,0.4,6.1,1.1,7.3
			c0.8,1.2,2.5,1.7,5.3,1.7c1.9,0,3.9-0.2,5.8-0.4V35.3z M298.5,19.3c0.5,0,0.8,0.3,0.8,0.8v36.7c0,0.6-0.3,1-0.9,1.1
			c-3.7,0.6-7.4,0.9-11,0.9c-5.3,0-8.2-0.7-10.2-2.9c-1.9-2.3-2.4-5.5-2.4-11.5c0-5.7,0.8-9.6,2.3-11.6c1.6-2,4.7-2.9,9.5-2.9
			c2.7,0,4.9,0.1,6.6,0.3V20.1c0-0.5,0.3-0.8,0.8-0.8H298.5z"/>
	</g>
</g>
</svg>
